<?xml version="1.0" encoding="UTF-8"?>
<svg xmlns="http://www.w3.org/2000/svg" xmlns:xlink="http://www.w3.org/1999/xlink" width="25px" height="px" viewBox="0 0 25 25" version="1.1">
<g id="surface1">
<path style=" stroke:none;fill-rule:nonzero;fill:rgb(0%,0%,0%);fill-opacity:1;" d="M 12.492188 -0.015625 C 12.550781 -0.015625 12.609375 -0.015625 12.671875 -0.0195312 C 12.980469 0.015625 13.179688 0.15625 13.378906 0.390625 C 13.613281 0.75 13.597656 1.070312 13.585938 1.488281 C 13.585938 1.550781 13.585938 1.617188 13.582031 1.679688 C 13.582031 1.835938 13.578125 1.992188 13.574219 2.148438 C 13.601562 2.152344 13.628906 2.152344 13.660156 2.15625 C 15.386719 2.328125 17.042969 3.347656 18.152344 4.65625 C 19.257812 6.074219 19.835938 7.683594 19.839844 9.484375 C 19.839844 9.613281 19.839844 9.742188 19.839844 9.871094 C 19.84375 10.238281 19.84375 10.605469 19.847656 10.972656 C 19.855469 12.996094 20 14.914062 21.335938 16.554688 C 21.359375 16.582031 21.382812 16.609375 21.40625 16.636719 C 21.664062 16.957031 21.929688 17.25 22.234375 17.519531 C 22.644531 17.882812 22.914062 18.273438 22.964844 18.824219 C 22.980469 19.386719 22.875 19.824219 22.511719 20.261719 C 22.109375 20.667969 21.667969 20.851562 21.097656 20.867188 C 20.964844 20.867188 20.835938 20.867188 20.703125 20.867188 C 20.628906 20.867188 20.554688 20.867188 20.480469 20.871094 C 20.277344 20.871094 20.078125 20.871094 19.875 20.871094 C 19.65625 20.871094 19.441406 20.871094 19.222656 20.871094 C 18.796875 20.871094 18.371094 20.871094 17.941406 20.871094 C 17.597656 20.871094 17.25 20.871094 16.902344 20.871094 C 16.855469 20.871094 16.804688 20.871094 16.753906 20.871094 C 16.652344 20.871094 16.554688 20.871094 16.453125 20.871094 C 15.511719 20.871094 14.574219 20.871094 13.632812 20.871094 C 12.773438 20.871094 11.914062 20.871094 11.054688 20.871094 C 10.167969 20.875 9.285156 20.875 8.402344 20.875 C 7.90625 20.875 7.410156 20.875 6.914062 20.875 C 6.492188 20.875 6.070312 20.875 5.648438 20.875 C 5.433594 20.875 5.21875 20.875 5.003906 20.875 C 4.808594 20.875 4.609375 20.875 4.414062 20.875 C 4.34375 20.875 4.269531 20.875 4.199219 20.875 C 3.539062 20.878906 3.03125 20.75 2.554688 20.28125 C 2.113281 19.796875 2.066406 19.289062 2.089844 18.660156 C 2.132812 18.140625 2.488281 17.75 2.867188 17.429688 C 4.175781 16.300781 5 14.625 5.140625 12.902344 C 5.144531 12.835938 5.148438 12.769531 5.152344 12.703125 C 5.15625 12.648438 5.15625 12.648438 5.160156 12.59375 C 5.179688 12.230469 5.183594 11.871094 5.183594 11.507812 C 5.1875 11.390625 5.1875 11.273438 5.1875 11.152344 C 5.191406 10.820312 5.195312 10.484375 5.195312 10.152344 C 5.195312 9.945312 5.199219 9.738281 5.199219 9.53125 C 5.199219 9.453125 5.203125 9.378906 5.203125 9.300781 C 5.203125 8.582031 5.277344 7.871094 5.507812 7.1875 C 5.519531 7.148438 5.535156 7.109375 5.546875 7.070312 C 5.660156 6.734375 5.796875 6.417969 5.957031 6.101562 C 5.984375 6.050781 6.007812 6 6.035156 5.949219 C 6.382812 5.269531 6.835938 4.691406 7.375 4.148438 C 7.417969 4.105469 7.464844 4.058594 7.507812 4.011719 C 8.484375 3.074219 10.078125 2.148438 11.476562 2.148438 C 11.472656 2.105469 11.472656 2.0625 11.472656 2.019531 C 11.464844 1.863281 11.464844 1.703125 11.460938 1.542969 C 11.460938 1.476562 11.457031 1.40625 11.457031 1.339844 C 11.433594 0.601562 11.433594 0.601562 11.71875 0.292969 C 11.96875 0.0585938 12.152344 -0.015625 12.492188 -0.015625 Z M 12.492188 -0.015625 "/>
<path style=" stroke:none;fill-rule:nonzero;fill:rgb(0%,0%,0%);fill-opacity:1;" d="M 8.640625 21.875 C 11.1875 21.875 13.734375 21.875 16.359375 21.875 C 16.222656 22.542969 16.007812 23.058594 15.578125 23.585938 C 15.542969 23.625 15.511719 23.667969 15.476562 23.710938 C 14.914062 24.378906 14.011719 24.902344 13.132812 25 C 11.964844 25.074219 10.882812 24.910156 9.96875 24.121094 C 9.933594 24.089844 9.898438 24.054688 9.863281 24.023438 C 9.832031 23.996094 9.796875 23.96875 9.765625 23.9375 C 9.175781 23.394531 8.796875 22.652344 8.640625 21.875 Z M 8.640625 21.875 "/>
</g>
</svg>
